<?xml version="1.0" standalone="no"?>
<!DOCTYPE svg PUBLIC "-//W3C//DTD SVG 20010904//EN"
 "http://www.w3.org/TR/2001/REC-SVG-20010904/DTD/svg10.dtd">
<svg version="1.0" xmlns="http://www.w3.org/2000/svg"
 width="260.000000pt" height="260.000000pt" viewBox="0 0 260.000000 260.000000"
 preserveAspectRatio="xMidYMid meet">
<metadata>
Created by potrace 1.14, written by Peter Selinger 2001-2017
</metadata>
<g transform="translate(0.000000,260.000000) scale(0.100000,-0.100000)"
fill="#000000" stroke="none">
<path d="M1155 2589 c-342 -43 -534 -244 -590 -619 -21 -138 -21 -1222 0
-1360 31 -205 87 -332 195 -441 125 -127 241 -169 466 -169 104 0 143 4 187
19 95 33 164 91 223 187 11 18 12 17 17 -6 4 -14 11 -58 17 -97 l12 -73 184 0
184 0 0 660 0 660 -365 0 -365 0 0 -170 0 -170 116 0 117 0 -6 -202 c-6 -217
-15 -269 -60 -337 -33 -49 -87 -74 -158 -74 -116 0 -180 69 -200 219 -15 118
-7 1395 10 1450 29 96 103 142 204 131 62 -8 104 -39 130 -96 18 -40 22 -70
25 -228 l4 -183 275 0 276 0 -6 178 c-6 201 -23 289 -83 409 -67 138 -206 245
-369 287 -129 33 -298 42 -440 25z"/>
</g>
</svg>
