<svg xmlns="http://www.w3.org/2000/svg" width="346.453" height="285.992" viewBox="0 0 346.453 285.992"><defs><style>.a{fill:#211715;}</style></defs><path class="a" d="M206.051,232.553c.657,6.953.957,13.932,1.559,20.891.4,4.648.9,9.681,3.559,13.673,2.641,3.97,6.91,6.095,11.475,7.072a9.586,9.586,0,0,1,3.754,1.253c.069.05.6.532.589.517a6.042,6.042,0,0,1,.442.716c.307.5-.01-.339.123.364.031.165.2,1.072.158.707a10.723,10.723,0,0,1,.064,1.552,4.937,4.937,0,0,1-.078.92,7.124,7.124,0,0,1-.183.718c-.1.275-.1.3-.015.071a3.314,3.314,0,0,1-.216.375c.022-.166.543-.236.228-.233-.188,0-.376,0-.565,0h-7.387l-18.223,0-48.215-.01-33.169-.006c-.234,0-.468,0-.7,0-.4.009-.029-.017-.033.043-.007.106-.551-.354.023.027q.321.285.018,0,.222.335-.014-.019a5.018,5.018,0,0,1-.539-1.893,11.588,11.588,0,0,1-.011-1.548c0,.038.091-.74.034-.386-.041.247.107-.432.125-.507.14-.58-.37.544.062-.174a5.837,5.837,0,0,1,.442-.716s.489-.445.589-.517a9.581,9.581,0,0,1,3.753-1.253,21.316,21.316,0,0,0,7.069-2.733,16.537,16.537,0,0,0,6.919-10.488,55.561,55.561,0,0,0,1.088-8c.318-3.688.624-7.377.819-11.074.165-3.119.405-6.229.7-9.338a2.418,2.418,0,0,0-2.4-2.4,2.451,2.451,0,0,0-2.4,2.4c-.673,7.112-.98,14.251-1.6,21.368a35.452,35.452,0,0,1-1.195,7.13c-.129.43-.27.857-.429,1.277a6.892,6.892,0,0,1-.485,1.077,13.2,13.2,0,0,1-.754,1.29,4.274,4.274,0,0,1-.674.873,11.661,11.661,0,0,1-4.751,3.1c-2.664.956-5.667,1.033-8.082,2.626a7.932,7.932,0,0,0-3.61,6.2,9.946,9.946,0,0,0,1.373,6.372c1.556,2.221,3.844,2.057,6.2,2.057h6.15l19.443,0,49.447.01c10.271,0,20.548.105,30.818.006,4.78-.045,5.617-5.305,5.048-9.085a7.992,7.992,0,0,0-3.833-5.731c-2.464-1.491-5.456-1.562-8.11-2.567a10.878,10.878,0,0,1-6.883-7.78,38.623,38.623,0,0,1-1.159-7.342c-.333-3.847-.657-7.7-.86-11.553-.165-3.119-.405-6.229-.7-9.338a2.466,2.466,0,0,0-2.4-2.4,2.417,2.417,0,0,0-2.4,2.4Z"/><path class="a" d="M142.061,271.959h62.327c3.089,0,3.094-4.8,0-4.8H142.061c-3.089,0-3.094,4.8,0,4.8Z"/><path class="a" d="M0,21.056Q.051,48.074.126,75.092.21,108,.3,140.9q.078,29.211.151,58.422.014,5.576.026,11.15c.011,5.046.677,9.82,3.624,14.076a21.127,21.127,0,0,0,12.671,8.664c3.408.753,6.977.533,10.448.543q21.351.061,42.7.053,27.781.006,55.562-.021,30.625-.024,61.25-.068,29.883-.041,59.766-.092,25.638-.042,51.274-.089l19.972-.036c2.978-.006,6,.138,8.974-.055a21.109,21.109,0,0,0,14.069-6.585,21.385,21.385,0,0,0,5.658-14.612c.012-3.581,0-7.163,0-10.745l-.015-26.211-.039-63.489-.039-61.456-.015-24.136c0-4.266.2-8.545-1.378-12.6A21.059,21.059,0,0,0,334.638,2.275C330.552.308,326.389.12,321.955.12l-9.347,0L290.7.115,236.936.106,175.756.1,114.4.084,60.125.074l-22.3,0-9.575,0c-3.041,0-6.174-.2-9.2.1A21.2,21.2,0,0,0,0,21.056c-.033,3.089,4.767,3.092,4.8,0A16.393,16.393,0,0,1,11.05,8.233c3.565-2.773,7.616-3.366,11.987-3.366l18.4,0,48.419.009,58.074.011,61.255.011,57.1.01,46.467.007,9.076,0c4.071,0,7.924.027,11.578,2.127a16.312,16.312,0,0,1,7.958,11.59c.536,3.448.171,7.2.173,10.68q.017,26.946.034,53.891.019,31.95.04,63.9.017,27.709.032,55.418c0,3.644.161,7.329-.018,10.968a16.154,16.154,0,0,1-6.579,12.092c-5.878,4.257-13.764,3.111-20.635,3.124l-44.718.08q-27.93.048-55.859.092-30.177.045-60.352.08-29.133.033-58.264.046-24.548.009-49.1-.014-9.451-.012-18.9-.037c-3.164-.009-6.533.287-9.618-.476a16.365,16.365,0,0,1-10.816-8.857c-1.843-3.853-1.507-8.094-1.516-12.239l-.027-11.3q-.035-13.725-.07-27.449Q5.089,136.651,5,104.666q-.079-30.354-.154-60.709-.026-11.45-.049-22.9C4.794,17.968-.006,17.962,0,21.056Z"/><path class="a" d="M2.921,199.391q7.6,0,15.192-.008l28.1-.023,37.738-.037,44.1-.049,47.36-.06q23.492-.031,46.983-.068,21.751-.035,43.5-.075,18.373-.035,36.748-.08,13.359-.035,26.717-.084c4.47-.018,8.942-.012,13.411-.086.294,0,.588,0,.882-.021,3.072-.168,3.091-4.969,0-4.8-3.208.175-6.451.07-9.662.086q-11.883.06-23.768.085-17.3.048-34.6.081-21.078.043-42.155.076-23.307.039-46.613.07-23.72.033-47.437.062l-45.154.052-39.594.04-30.76.027-18.649.012H2.921c-3.088,0-3.093,4.8,0,4.8Z"/><path class="a" d="M180.61,214.323c0,4.023-3.011,6.978-7.306,6.978-4.926,0-7.466-3.366-7.466-6.981a7.08,7.08,0,0,1,7.179-7.18A7.471,7.471,0,0,1,180.61,214.323Z"/><path class="a" d="M136.274,69.583c9.671.147,19.351.032,29.022.018q20.72-.03,41.439-.045,3.816,0,7.631.012c.74,0,2.229-.269,2.858.129.835.53-.041,2.452-.212,3.2q-2.57,11.31-5.177,22.611-1.232,5.351-2.466,10.7-.459,1.983-.918,3.967c-.3,1.31-.583,1.385-1.865,1.389q-8.7.023-17.41.059-18.4.069-36.8.134c-.561,0-1.122,0-1.683,0-3.088,0-3.094,4.8,0,4.8,11.538,0,23.075-.079,34.613-.122q9.693-.036,19.387-.069a23.038,23.038,0,0,0,3.817-.112,5.72,5.72,0,0,0,4.529-4.623q1.062-4.577,2.115-9.156,2.78-12.054,5.534-24.113.561-2.459,1.12-4.917c.48-2.119.959-4.21-.352-6.163-2.011-3-5.625-2.516-8.765-2.523-13.569-.03-27.137.006-40.706.027-11.392.017-22.785.083-34.177.007-.51,0-1.021-.007-1.532-.015-3.09-.047-3.091,4.753,0,4.8Z"/><path class="a" d="M143.036,92.123c7.651,0,15.3-.033,22.954-.054l30.026-.088c2.721-.007,5.441-.019,8.162-.02,3.088,0,3.093-4.8,0-4.8-6.724,0-13.448.035-20.172.055q-15.4.045-30.8.087-5.085.013-10.169.02c-3.088,0-3.094,4.8,0,4.8Z"/><path class="a" d="M155.666,67.4c1.417,12.776,2.648,25.572,4.048,38.35.289,2.631.569,5.265.911,7.889a2.479,2.479,0,0,0,2.4,2.4,2.413,2.413,0,0,0,2.4-2.4c-1.678-12.864-2.813-25.812-4.161-38.713-.262-2.509-.52-5.019-.8-7.526a2.472,2.472,0,0,0-2.4-2.4,2.416,2.416,0,0,0-2.4,2.4Z"/><path class="a" d="M186.134,76.186q-1.232,15.351-2.4,30.706c-.177,2.364-.352,4.729-.511,7.094a2.4,2.4,0,0,0,4.8,0c.695-10.378,1.556-20.746,2.381-31.113q.266-3.343.534-6.687a2.419,2.419,0,0,0-2.4-2.4,2.448,2.448,0,0,0-2.4,2.4Z"/><path class="a" d="M103.821,51.51q3.024,0,6.048.007l3.389.006a17.676,17.676,0,0,1,3.229,0c1.145.231,1.41,3.07,1.691,4.085,1.28,4.631,2.6,9.251,3.917,13.87q5.216,18.249,10.55,36.465,2.25,7.706,4.521,15.406.811,2.75,1.631,5.5a13.413,13.413,0,0,0,1,2.854,5.753,5.753,0,0,0,5.069,2.8c10.193.166,20.4.036,30.6.054q14.562.025,29.125.047h1.264c3.088,0,3.094-4.8,0-4.8q-12.929,0-25.857-.04-16.43-.029-32.857-.058c-.753,0-1.519.038-2.27,0-.906-.051-.969-.548-1.2-1.326q-.769-2.565-1.527-5.132-2.229-7.532-4.428-15.072-5.334-18.252-10.578-36.532-2.055-7.179-4.069-14.37c-.438-1.578-.769-3.234-1.323-4.775-1.764-4.905-7.751-3.775-11.874-3.782q-3.024,0-6.048-.007c-3.089,0-3.094,4.8,0,4.8Z"/><path class="a" d="M152.578,142.016c.22,0,.439.019.659.025.68.019-.445-.115.207.026a9.566,9.566,0,0,1,1,.255c.087.029.687.291.173.05.119.056.238.112.354.172.174.091.343.188.509.292.1.067.726.574.295.192a9.357,9.357,0,0,1,.692.659c.006.006.418.477.181.194s.142.208.15.219c.19.285.314.647.519.914s-.16-.5.021.046c.082.246.168.488.233.739.045.173.168,1.12.123.523.025.338.045.673.039,1.012q-.006.312-.03.621c-.008.108-.122.756-.009.155a10.594,10.594,0,0,1-.256,1.112c-.054.175-.12.346-.178.519.024-.073.225-.463.031-.079-.158.314-.338.606-.515.909-.063.108-.279.348.072-.072-.109.13-.216.261-.333.385-.1.1-.2.2-.3.3s-.619.465-.1.113c-.238.162-.473.322-.726.461-.154.084-.313.157-.471.234.557-.271.026-.02-.094.021a7.945,7.945,0,0,1-.9.244c-.1.022-.739.118-.126.042-.2.025-.4.042-.6.054a10.51,10.51,0,0,1-1.255,0c-.137-.008-.273-.021-.409-.032-.657-.053.477.124-.148-.026-.308-.074-.616-.132-.918-.226-.175-.054-.345-.118-.517-.18.582.209-.021-.022-.15-.091a7.906,7.906,0,0,1-.8-.5c.53.365-.166-.174-.279-.289s-.22-.258-.339-.377c.346.346.152.215.067.082-.22-.344-.415-.687-.6-1.05.036.069.178.49.037.079-.059-.173-.122-.344-.174-.519-.09-.3-.147-.611-.216-.92-.14-.624.018.509-.021-.145-.012-.2-.033-.408-.041-.613a10.924,10.924,0,0,1,.034-1.227c-.04.532-.018.095.016-.049.051-.223.1-.446.159-.667.054-.187.119-.369.183-.553.2-.58-.231.4.063-.133.2-.365.435-.7.643-1.061.177-.3-.372.379.041-.036.18-.181.345-.373.533-.547.093-.086.192-.168.288-.252-.435.382.19-.124.3-.189q.207-.131.422-.244c.108-.058.758-.326.235-.131a8.475,8.475,0,0,1,1.168-.349c.086-.018.758-.1.195-.045.291-.027.58-.042.872-.045a2.4,2.4,0,0,0,0-4.8,9.945,9.945,0,0,0-9.566,7.109c-1.09,3.781.015,8.375,3.186,10.825a11.064,11.064,0,0,0,11.531.792c3.485-1.85,5.173-6,4.739-9.817a9.942,9.942,0,0,0-9.89-8.909,2.4,2.4,0,0,0,0,4.8Z"/><path class="a" d="M197.431,142.016c.22,0,.439.019.659.025.68.019-.444-.115.207.026a9.52,9.52,0,0,1,1,.255c.087.029.686.291.172.05.119.056.238.112.355.172.173.091.343.188.508.292.106.067.727.574.295.192a9.371,9.371,0,0,1,.693.659c0,.006.418.477.181.194s.142.208.149.219c.19.285.314.647.519.914s-.16-.5.022.046c.081.246.167.488.233.739.045.173.167,1.12.123.523.025.338.045.673.038,1.012q0,.312-.03.621c-.008.108-.122.756-.009.155a10.114,10.114,0,0,1-.256,1.112c-.053.175-.119.346-.178.519.025-.073.225-.463.032-.079-.158.314-.338.606-.515.909-.063.108-.279.348.072-.072-.109.13-.217.261-.333.385-.1.1-.2.2-.3.3s-.619.465-.1.113c-.237.162-.473.322-.726.461-.154.084-.312.157-.47.234.557-.271.025-.02-.094.021a7.962,7.962,0,0,1-.9.244c-.1.022-.739.118-.125.042-.2.025-.4.042-.6.054a10.526,10.526,0,0,1-1.256,0c-.136-.008-.272-.021-.409-.032-.656-.053.477.124-.148-.026-.307-.074-.615-.132-.918-.226-.175-.054-.344-.118-.516-.18.581.209-.022-.022-.151-.091a8,8,0,0,1-.8-.5c.529.365-.166-.174-.279-.289s-.22-.258-.339-.377c.345.346.152.215.066.082-.22-.344-.415-.687-.6-1.05.036.069.177.49.036.079-.059-.173-.121-.344-.173-.519-.09-.3-.148-.611-.217-.92-.139-.624.018.509-.021-.145-.012-.2-.032-.408-.04-.613a10.692,10.692,0,0,1,.033-1.227c-.04.532-.017.095.016-.049.052-.223.1-.446.16-.667.053-.187.118-.369.182-.553.2-.58-.23.4.064-.133.2-.365.434-.7.643-1.061.176-.3-.372.379.04-.036.18-.181.345-.373.533-.547.094-.086.192-.168.288-.252-.434.382.191-.124.3-.189.138-.087.278-.168.422-.244.108-.058.757-.326.234-.131a8.488,8.488,0,0,1,1.169-.349c.085-.018.757-.1.194-.045.291-.027.58-.042.872-.045a2.4,2.4,0,0,0,0-4.8,9.946,9.946,0,0,0-9.566,7.109c-1.089,3.781.015,8.375,3.187,10.825a11.062,11.062,0,0,0,11.53.792c3.485-1.85,5.173-6,4.739-9.817a9.941,9.941,0,0,0-9.89-8.909,2.4,2.4,0,0,0,0,4.8Z"/></svg>