<?xml version="1.0" encoding="UTF-8"?><svg id="_レイヤー_2" xmlns="http://www.w3.org/2000/svg" viewBox="0 0 339.42 274.19"><defs><style>.cls-1{fill:#211715;stroke-width:0px;}</style></defs><g id="_レイヤー_2-2"><path class="cls-1" d="m336.03,179.44c-6.94,24.5-26.36,43.55-50.88,50.05l-1.47.35c-.26.06-.51.1-.74.1-1.44,0-2.14-1.45-2.26-2.42-.22-1.84,1.11-2.17,1.54-2.28,13.31-3.11,25.28-10.11,34.55-20.22,15.85-17.62,21.91-44.99,15.45-69.75-6.54-25.16-26.26-44.69-51.48-50.98-1.04-.35-1.75-1.31-1.77-2.41-.31-15.12-4.83-29.82-13.06-42.51-14.16-21.64-39.04-34.56-66.58-34.56-1.2,0-2.42.03-3.62.08-29.41,1.08-55.46,18.28-68.02,44.92-.49.69-1.27,1.1-2.1,1.1-.21,0-.43-.02-.63-.08l-.13-.03-.14-.03c-3.21-.56-6.49-.85-9.75-.85-13.63,0-26.77,4.95-37.01,13.95-13.19,12.09-19.26,29.44-17.16,48.92-.1,1.25-1.15,2.26-2.43,2.27-15.43.55-30.03,7.46-40.17,18.95C1.23,153.45.24,185.25,15.89,206.41c7.37,9.64,17.86,16.47,29.58,19.28,7.08,1.79,14.27,2.03,20.37,2.03,2.51,0,5.04-.05,7.48-.09,2.36-.05,4.8-.1,7.14-.1,1.99,0,2.2,1.69,2.2,2.41s-.21,2.4-2.2,2.4c-2.16,0-4.33.03-6.5.05-2.16.02-4.33.05-6.49.05-11.37,0-20.78-.7-29.72-4.12-12.49-4.66-23.01-13.57-29.64-25.1-6.77-12.35-9.44-26.91-7.49-40.93,1.82-13.86,8.41-26.71,18.58-36.2,9.24-8.34,20.67-13.64,33.05-15.3l.21-.03,2.2-.28.98-.13-.04-.81-.1-2.4c0-.07-.01-.14-.01-.21-.69-17.69,6.36-34.73,19.4-46.77,10.86-9.65,24.81-14.77,40.3-14.77,2.21,0,4.46.11,6.68.32l2.34.23,1.1-2.09c.04-.08.09-.17.13-.25.16-.31.33-.61.49-.92,7.18-13.15,17.81-24.05,30.83-31.56,13.06-7.26,27.91-11.12,42.91-11.12s30.99,4.16,44.49,12.02c22.51,13.96,37.18,37.98,39.34,64.41.03.21.04.43.05.65.02.19.04.39.05.59l.16,2.41,2.31.7c.13.04.27.08.4.13.27.08.53.16.79.25,12.81,4.14,24.29,11.66,33.24,21.8,17.39,20.05,23.35,49.36,15.53,76.48Z"/><path class="cls-1" d="m336.03,179.44c-6.94,24.5-26.36,43.55-50.88,50.05l-1.47.35c-.26.06-.51.1-.74.1-1.44,0-2.14-1.45-2.26-2.42-.22-1.84,1.11-2.17,1.54-2.28,13.31-3.11,25.28-10.11,34.55-20.22,15.85-17.62,21.91-44.99,15.45-69.75-6.54-25.16-26.26-44.69-51.48-50.98-1.04-.35-1.75-1.31-1.77-2.41-.31-15.12-4.83-29.82-13.06-42.51-14.16-21.64-39.04-34.56-66.58-34.56-1.2,0-2.42.03-3.62.08-29.41,1.08-55.46,18.28-68.02,44.92-.49.69-1.27,1.1-2.1,1.1-.21,0-.43-.02-.63-.08l-.13-.03-.14-.03c-3.21-.56-6.49-.85-9.75-.85-13.63,0-26.77,4.95-37.01,13.95-13.19,12.09-19.26,29.44-17.16,48.92-.1,1.25-1.15,2.26-2.43,2.27-15.43.55-30.03,7.46-40.17,18.95C1.23,153.45.24,185.25,15.89,206.41c7.37,9.64,17.86,16.47,29.58,19.28,7.08,1.79,14.27,2.03,20.37,2.03,2.51,0,5.04-.05,7.48-.09,2.36-.05,4.8-.1,7.14-.1,1.99,0,2.2,1.69,2.2,2.41s-.21,2.4-2.2,2.4c-2.16,0-4.33.03-6.5.05-2.16.02-4.33.05-6.49.05-11.37,0-20.78-.7-29.72-4.12-12.49-4.66-23.01-13.57-29.64-25.1-6.77-12.35-9.44-26.91-7.49-40.93,1.82-13.86,8.41-26.71,18.58-36.2,9.24-8.34,20.67-13.64,33.05-15.3l.21-.03,2.2-.28.98-.13-.04-.81-.1-2.4c0-.07-.01-.14-.01-.21-.69-17.69,6.36-34.73,19.4-46.77,10.86-9.65,24.81-14.77,40.3-14.77,2.21,0,4.46.11,6.68.32l2.34.23,1.1-2.09c.04-.08.09-.17.13-.25.16-.31.33-.61.49-.92,7.18-13.15,17.81-24.05,30.83-31.56,13.06-7.26,27.91-11.12,42.91-11.12s30.99,4.16,44.49,12.02c22.51,13.96,37.18,37.98,39.34,64.41.03.21.04.43.05.65.02.19.04.39.05.59l.16,2.41,2.31.7c.13.04.27.08.4.13.27.08.53.16.79.25,12.81,4.14,24.29,11.66,33.24,21.8,17.39,20.05,23.35,49.36,15.53,76.48Z"/><path class="cls-1" d="m251.55,215.48v-.23c0-1.57.02-3.14.04-4.71,0-.55,0-1.11.02-1.67.07-4.52.13-9.18-.06-13.7-.06-1.44-.21-5.25-6.66-5.25h-8.8l-.79-2.43c-.03-.09-.06-.19-.1-.28-.08-.26-.17-.53-.27-.79-.56-1.66-1.2-3.3-1.92-4.91-.08-.2-.18-.41-.27-.61-.08-.18-.17-.37-.25-.55l-1.05-2.22,5.44-5.44c2.16-2.14,3.37-3.45,3.37-5.32s-1.29-3.24-3.4-5.35l-6.35-6.34c-.7-.71-1.39-1.47-2.12-2.27-2.29-2.52-5.13-5.64-7.6-5.74h-.17c-1.8,0-3.07,1.06-5.33,3.33l-2.81,2.81-.64.64-1.91,1.91-2.22-1.03c-.2-.09-.4-.18-.6-.26h-.02c-.19-.1-.36-.19-.56-.26-1.63-.73-3.3-1.37-5-1.92-.29-.1-.58-.2-.87-.28-.05-.02-.09-.04-.14-.05l-2.49-.78.02-2.6v-.02c0-.31.01-.61.01-.91.02-2.23.03-4.28-.04-6.36v-.28c.12-2.2-1.23-4.23-3.29-5-.93-.17-1.86-.25-2.76-.25-.34,0-.68,0-1.01.03h-.13s-14.92.01-14.92.01c-.44,0-.88-.01-1.33-.01-.4-.01-.8-.02-1.2-.02-.35,0-.7.01-1.06.03h-.1c-2.63.07-4.73,2.19-4.77,4.83v.14c-.14,2.37-.12,4.87-.08,7.15.01.31.02.62.02.92h0s.05,2.61.05,2.61l-2.49.79c-.07.02-.13.04-.2.07-.27.08-.54.17-.81.27-1.65.54-3.28,1.16-4.87,1.84-.18.08-.36.15-.53.23h-.02c-.23.1-.43.2-.65.3l-2.21,1-5.44-5.44c-2.14-2.15-3.44-3.36-5.31-3.36-2.6,0-5.38,3.05-7.83,5.74-.73.8-1.42,1.56-2.12,2.26l-6.35,6.35c-2.05,2.03-3.31,3.37-3.38,5.12-.08,1.88.95,3.12,3.31,5.48l3.37,3.37,1.92,1.92-1.03,2.21c-.09.2-.18.39-.27.6h0c-.09.2-.18.39-.25.59-.73,1.66-1.38,3.36-1.94,5.09-.1.29-.2.58-.29.88,0,.04-.03.09-.04.13l-.76,2.49-2.62-.02c-.31-.01-.61-.01-.92-.01-.81-.01-1.62-.02-2.42-.02-1.28,0-2.56.02-3.84.06h-.14s-.32-.01-.41-.01c-2.11,0-3.99,1.31-4.73,3.3-.23,1.29-.31,2.56-.22,3.77v.13s.01,14.95.01,14.95c0,.44-.01.88-.01,1.32-.02.8-.03,1.56.01,2.26v.11c.07,2.63,2.19,4.72,4.83,4.76h.15c1.18.08,2.49.11,4,.11.99,0,1.99-.01,2.98-.03.3-.01.6-.01.9-.02h.04l2.59-.05.78,2.52s.03.08.04.12h0c.09.29.18.58.28.86.55,1.7,1.18,3.37,1.89,5.01.07.18.15.34.23.51h0c.09.24.2.47.3.7l1,2.21-2.56,2.56-2.78,2.78c-2.02,2.01-3.26,3.33-3.33,5.08-.1,2.65,2.89,5.38,5.52,7.79.76.7,1.49,1.37,2.15,2.03l5.97,5.98.72.72c1.82,1.86,3.03,3.02,4.6,3.29.13.01.25.01.38.01,1.85,0,3.57-.84,4.71-2.32l.14-.17,5.89-5.89,2.21,1.01c.21.1.42.19.64.28.18.09.37.17.56.24,1.7.75,3.45,1.4,5.21,1.95.31.1.61.2.92.29h.01s.02.01.03.01l2.53.76-.03,2.57v.07c0,.29-.01.59-.01.88-.02,2.16-.03,4.27.05,6.34v.26c-.09,2.28,1.36,4.29,3.53,4.92.85.15,1.76.23,2.69.23.19,0,.37-.01.55-.01h17.99l1.08-.03c2.66-.09,4.76-2.25,4.78-4.91v-.16c.12-2.4.11-4.9.07-7.39-.01-.29-.01-.58-.02-.87v-.24l-.05-2.48,2.33-.86c.21-.08.42-.16.63-.25h.01c.18-.06.35-.13.53-.21,1.44-.55,2.87-1.17,4.26-1.84.24-.11.48-.22.71-.34.12-.05.23-.11.35-.17l2.26-1.12,1.88,1.88.65.65,2.52,2.52.14.18c1.43,1.87,3.3,3.32,5.42,4.22.24.05.47.07.71.07,2.97,0,6.33-3.75,9.03-6.77.84-.94,1.64-1.83,2.44-2.64.73-.73,1.54-1.46,2.38-2.23,2.66-2.4,5.97-5.4,5.97-8.06,0-1.87-1.23-3.18-3.4-5.35l-3.19-3.19-.66-.66-1.86-1.86,1.13-2.25c.05-.11.11-.21.15-.32h0c.13-.25.25-.49.36-.74.72-1.52,1.38-3.09,1.95-4.67.1-.24.18-.47.26-.72h0c.04-.1.07-.18.1-.27l.86-2.47,2.5.11h.12c.29.02.59.04.9.05.86.03,1.8.06,2.73.06,1.36,0,2.52-.06,3.5-.18,4.22-.5,5.22-1.93,5.57-3.21l.07-.23.09-.22c.04-.1.05-.31.05-.31m-58.28,40.35v12.31h-20.93v-12.42c0-1.06-.7-2-1.69-2.32-5.02-1.04-9.85-2.81-14.38-5.29-.38-.21-.82-.33-1.25-.33-.66,0-1.29.26-1.73.68l-3.55,3.56-4.57,4.57-2.48-2.49c-1.46-1.46-3.57-3.4-4.96-4.68-.69-.64-1.2-1.1-1.37-1.27l-6.2-6.21,8.44-8.44c.79-.81.94-2.04.37-3.09-2.34-4.4-4.1-9.13-5.24-14.07-.33-1.02-1.28-1.73-2.33-1.74h-12.57v-20.97h12.45c1.04,0,1.99-.71,2.32-1.73,1.13-5.04,2.94-9.83,5.38-14.22.55-.99.4-2.2-.36-2.98l-8.42-8.42,11.92-11.93.16-.13c.18-.14.35-.28.52-.43l2.47-2.12,8.37,8.37c.47.46,1.11.71,1.78.71.44,0,.88-.11,1.31-.34,4.41-2.35,9.09-4.11,13.92-5.24,1.02-.33,1.73-1.28,1.74-2.3v-12.73h20.97v12.52c.01,1.07.71,2.01,1.71,2.33,4.93,1.11,9.69,2.91,14.14,5.37.38.22.82.33,1.25.33.66,0,1.29-.25,1.73-.68l8.54-8.54,10.41,10.41c.35.35.72.8,1.15,1.33.26.3.53.63.81.96l2.15,2.46-8.3,8.3c-.79.82-.95,2.04-.39,3.03,2.47,4.46,4.3,9.16,5.43,13.95.33,1.02,1.28,1.73,2.31,1.74h12.58v20.93h-12.72c-1.07.01-2.02.73-2.35,1.76-1.24,4.83-3.17,9.45-5.7,13.66-.54.94-.37,2.16.38,2.94l4.25,4.25c.38.38.79.87,1.26,1.43.28.34.59.71.9,1.07.04.04.07.09.11.13l.33.37,1.86,2.09-14.48,14.48-2.47-2.56c-.72-.75-1.49-1.46-2.29-2.13l-.12-.1-4.53-4.53c-.47-.46-1.1-.72-1.76-.72-.43,0-.86.12-1.18.29-4.16,2.46-8.62,4.4-13.25,5.76-1.05.31-1.84,1.29-1.85,2.38"/><path class="cls-1" d="m182.87,182.66c-12.53,0-22.7,10.16-22.7,22.7s10.17,22.7,22.7,22.7,22.7-10.17,22.7-22.7-10.16-22.7-22.7-22.7Zm0,40.6c-9.88,0-17.9-8.02-17.9-17.9s8.02-17.9,17.9-17.9,17.9,8.01,17.9,17.9-8.01,17.9-17.9,17.9Z"/></g></svg>