<?xml version="1.0" encoding="UTF-8"?><svg id="_レイヤー_2" xmlns="http://www.w3.org/2000/svg" viewBox="0 0 90.45 13.33"><defs><style>.cls-1{fill:#323333;}</style></defs><g id="_レイヤー_1-2"><path class="cls-1" d="m0,8.85v-4.35C0,1.75.93,0,3.89,0s3.79,1.54,3.79,3.79v.83h-2.8v-1.06c0-.82-.06-1.55-.96-1.55s-.99.85-.99,1.63v6c0,.88.19,1.65,1.07,1.65s1.12-.8,1.12-1.68v-1.52h-1.17v-1.68h3.75v6.72h-1.89l-.16-1.07c-.35.74-.96,1.26-2.1,1.26-2.69,0-3.55-1.81-3.55-4.48Z"/><path class="cls-1" d="m9.31,9.06v-4.82c0-2.67.98-4.24,3.89-4.24s3.92,1.57,3.92,4.24v4.82c0,2.67-.99,4.27-3.92,4.27s-3.89-1.6-3.89-4.27Zm4.88.72V3.54c0-.77-.1-1.52-.99-1.52-.85,0-.96.75-.96,1.52v6.24c0,.74.06,1.52.96,1.52s.99-.78.99-1.52Z"/><path class="cls-1" d="m20.03,2.31h-1.95V.18h6.77v2.13h-1.94v10.84h-2.88V2.31Z"/><path class="cls-1" d="m25.81,9.06v-4.82c0-2.67.98-4.24,3.89-4.24s3.92,1.57,3.92,4.24v4.82c0,2.67-.99,4.27-3.92,4.27s-3.89-1.6-3.89-4.27Zm4.88.72V3.54c0-.77-.1-1.52-.99-1.52-.85,0-.96.75-.96,1.52v6.24c0,.74.06,1.52.96,1.52s.99-.78.99-1.52Z"/><path class="cls-1" d="m39.17,9.22l2.45-.37c.03,1.68.42,2.31,1.14,2.31.59,0,.72-.5.72-.94,0-1.07-.54-1.71-1.42-2.47l-1.12-.98c-.99-.83-1.74-1.81-1.74-3.38,0-2.19,1.39-3.39,3.63-3.39,2.77,0,3.17,2.16,3.22,3.68l-2.46.3c-.03-1.15-.11-1.89-.85-1.89-.53,0-.77.56-.77,1.01,0,.96.5,1.47,1.25,2.13l1.07.94c1.12.96,2.02,2.1,2.02,3.89s-1.33,3.27-3.39,3.27c-2.45,0-3.63-1.23-3.73-4.11Z"/><path class="cls-1" d="m47.73.18h2.87v5.25h2V.18h2.88v12.96h-2.88v-5.67h-2v5.67h-2.87V.18Z"/><path class="cls-1" d="m57.34,9.12V.18h2.83v9.38c0,.82.1,1.71,1.01,1.71s.99-.9.99-1.71V.18h2.85v8.95c0,2.72-.86,4.21-3.84,4.21s-3.84-1.49-3.84-4.21Z"/><path class="cls-1" d="m66.85.18h2.02l2.66,6.24V.18h2.37v12.96h-1.94l-2.66-6.72v6.72h-2.45V.18Z"/><path class="cls-1" d="m76.99,2.31h-1.95V.18h6.77v2.13h-1.94v10.84h-2.88V2.31Z"/><path class="cls-1" d="m84.77.18h3.27l2.42,12.96h-2.64l-.43-2.74h-1.9l-.45,2.74h-2.71L84.77.18Zm2.34,8.51l-.69-5.06-.69,5.06h1.38Z"/></g></svg>