<?xml version="1.0" encoding="UTF-8"?><svg id="_レイヤー_2" xmlns="http://www.w3.org/2000/svg" viewBox="0 0 939.1 931.15"><defs><style>.cls-1{stroke-width:3px;}.cls-1,.cls-2,.cls-3,.cls-4,.cls-5,.cls-6,.cls-7,.cls-8,.cls-9,.cls-10,.cls-11,.cls-12,.cls-13,.cls-14,.cls-15,.cls-16,.cls-17{stroke:#fff;stroke-miterlimit:10;}.cls-1,.cls-2,.cls-4,.cls-5,.cls-6,.cls-7,.cls-8,.cls-10,.cls-11,.cls-12,.cls-13,.cls-14,.cls-15,.cls-16,.cls-17{fill:none;}.cls-2{opacity:.3;}.cls-2,.cls-15,.cls-16{stroke-width:8px;}.cls-3,.cls-9{fill:#fff;}.cls-3,.cls-12{stroke-width:4px;}.cls-4{stroke-width:45px;}.cls-5{stroke-width:80px;}.cls-6{stroke-width:5px;}.cls-7,.cls-10,.cls-15,.cls-18{opacity:.7;}.cls-7,.cls-13{stroke-width:31px;}.cls-8{stroke-width:.75px;}.cls-11{stroke-width:2px;}.cls-19{opacity:.6;}.cls-17{stroke-width:67px;}</style></defs><g id="_レイヤー_3"><path class="cls-9" d="m569.94,302.11h0s-6.18-14.06-6.18-14.06l-42.86-15.9-13.85,6.63c-88.67-15.97-179.03,33.42-211.44,120.8-32.41,87.38,3.88,183.74,81.51,229.46l6.18,14.06,42.86,15.9,13.85-6.63h0c88.68,15.96,179.02-33.41,211.43-120.79,32.41-87.38-3.87-183.73-81.5-229.47Zm-159.64,333.88c-93.96-34.86-142.05-139.66-107.2-233.63,34.86-93.97,139.67-142.06,233.63-107.21,93.97,34.86,142.06,139.67,107.2,233.64-34.86,93.96-139.66,142.05-233.64,107.2Z"/><circle class="cls-11" cx="473.52" cy="465.58" r="238.21"/><circle class="cls-14" cx="473.52" cy="465.58" r="78.73"/><path class="cls-14" d="m416.14,372.13c2.87-1.77,5.83-3.4,8.87-4.91"/><path class="cls-14" d="m396.5,387.55c5.92-5.85,12.51-11.03,19.64-15.41"/><path class="cls-14" d="m381.49,405.97c2.11-3.25,4.38-6.37,6.81-9.37"/><path class="cls-14" d="m366.38,488.96c-1.64-7.54-2.5-15.36-2.5-23.39,0-15.25,3.11-29.77,8.74-42.96"/><path class="cls-14" d="m378.66,520.58c-2.83-4.87-5.3-9.98-7.36-15.3"/><path class="cls-14" d="m403.8,550.19c-10.03-8.28-18.57-18.3-25.14-29.61"/><path class="cls-14" d="m457.49,574.05c-15.7-2.3-30.31-7.92-43.11-16.14"/><path class="cls-14" d="m524.52,562.66c-15.23,8.02-32.59,12.56-51,12.56-2.12,0-4.22-.06-6.31-.18"/><path class="cls-14" d="m564.96,526.1c-7.18,10.83-16.23,20.3-26.69,27.97"/><path class="cls-14" d="m583.08,469.91c-.21,5.4-.81,10.7-1.77,15.87"/><path class="cls-14" d="m573.14,419.71c6.43,13.95,10.02,29.49,10.02,45.86,0,1.45-.03,2.9-.08,4.34"/><path class="cls-14" d="m531.4,372.44c13.7,8.53,25.38,20,34.15,33.52"/><path class="cls-14" d="m450.35,358.39c7.47-1.61,15.22-2.45,23.17-2.45,15.37,0,30,3.16,43.27,8.87"/><circle class="cls-15" cx="473.52" cy="465.58" r="461.58"/><circle class="cls-11" cx="473.52" cy="465.58" r="454.93"/><circle class="cls-11" cx="473.52" cy="465.58" r="352.74"/><circle class="cls-6" cx="473.52" cy="465.58" r="360.2"/><circle class="cls-1" cx="473.52" cy="465.58" r="319.23"/><circle class="cls-8" cx="473.52" cy="465.58" r="314.53"/><path class="cls-16" d="m337.75,243.3c18.1-11.08,37.66-20.01,58.33-26.44"/><path class="cls-16" d="m259.73,316.82c19.44-27.88,44.18-51.78,72.78-70.23"/><path class="cls-16" d="m217.29,418.76c5.45-30.03,16.05-58.26,30.85-83.76"/><path class="cls-15" d="m221.26,530.54c-5.33-20.77-8.17-42.54-8.17-64.97,0-8.63.42-17.16,1.24-25.58"/><path class="cls-16" d="m259.72,614.31c-14.99-21.51-26.82-45.38-34.81-70.95"/><path class="cls-16" d="m265.95,622.88c-2.13-2.81-4.21-5.67-6.23-8.57"/><path class="cls-16" d="m283.76,643.93c-2.36-2.51-4.67-5.06-6.92-7.66"/><path class="cls-16" d="m313.26,670.87c-10.51-8.22-20.38-17.23-29.51-26.93"/><path class="cls-16" d="m387.81,711.57c-3.51-1.22-6.98-2.52-10.42-3.88"/><path class="cls-16" d="m452.27,725.15c-22.41-1.81-44.01-6.46-64.46-13.58"/><path class="cls-16" d="m591.49,697.81c-35.42,18.03-75.51,28.19-117.97,28.19"/><path class="cls-15" d="m627.58,675.56c-3.23,2.37-6.52,4.67-9.86,6.9"/><path class="cls-15" d="m694.43,603.55c-16.16,25.83-36.73,48.61-60.65,67.31"/><path class="cls-16" d="m731.09,504.27c-4.46,29.94-14.01,58.21-27.75,83.91"/><path class="cls-2" d="m729.75,418.76c2.76,15.19,4.2,30.83,4.2,46.81,0,8.4-.4,16.71-1.18,24.91"/><path class="cls-16" d="m703.35,342.99c10.64,19.91,18.77,41.36,23.97,63.93"/><path class="cls-16" d="m652.59,276.48c16.01,15.16,30.09,32.34,41.85,51.12"/><path class="cls-15" d="m578.92,227.36c23.33,10.34,44.85,24,63.97,40.38"/><path class="cls-15" d="m561.24,220.29c3.02,1.08,6.01,2.21,8.97,3.4"/><path class="cls-16" d="m506.84,207.26c15.15,1.94,29.9,5.17,44.12,9.6"/><path class="cls-16" d="m412.05,212.45c19.71-4.77,40.29-7.3,61.47-7.3,11.29,0,22.41.72,33.32,2.11"/><circle class="cls-12" cx="473.52" cy="465.58" r="134.81"/><line class="cls-3" x1="473.52" y1="330.77" x2="473.52" y2="316.82"/><circle class="cls-9" cx="479.87" cy="320.11" r="1.87"/><circle class="cls-9" cx="479.87" cy="325.75" r="1.87"/><line class="cls-3" x1="356.77" y1="398.17" x2="344.7" y2="391.2"/><path class="cls-9" d="m351.65,385.73c.89.52,1.2,1.66.68,2.55-.52.89-1.66,1.2-2.55.68-.89-.52-1.2-1.66-.68-2.55.52-.89,1.66-1.2,2.55-.68Z"/><path class="cls-9" d="m356.54,388.55c.89.52,1.2,1.66.68,2.55-.52.89-1.66,1.2-2.55.68-.89-.52-1.2-1.66-.68-2.55.52-.89,1.66-1.2,2.55-.68Z"/><line class="cls-3" x1="473.52" y1="600.39" x2="473.52" y2="614.33"/><circle class="cls-9" cx="467.17" cy="611.04" r="1.87"/><circle class="cls-9" cx="467.17" cy="605.4" r="1.87"/><circle class="cls-14" cx="473.52" cy="465.58" r="113.06"/><circle class="cls-10" cx="473.52" cy="465.58" r="174.7"/><path class="cls-4" d="m134.66,330.77c15.15-38.04,36.51-72.93,62.84-103.41"/><path class="cls-4" d="m109.13,477.85c-.13-4.07-.2-8.17-.2-12.27,0-39.47,6.27-77.47,17.87-113.07"/><path class="cls-4" d="m754.6,697.82c-3.97,4.8-8.07,9.5-12.28,14.1"/><path class="cls-4" d="m766.62,682.46c-3.87,5.23-7.88,10.34-12.02,15.35"/><path class="cls-4" d="m814.66,594.52c-6.94,18.36-15.33,36.01-25.01,52.82"/><path class="cls-4" d="m835.12,512.54c-2.93,22.76-7.95,44.85-14.87,66.1"/><path class="cls-4" d="m837.91,477.84c-.39,11.72-1.33,23.29-2.79,34.7"/><g class="cls-19"><path class="cls-17" d="m172.89,718.36c-26.38-31.34-47.95-66.87-63.57-105.45"/><path class="cls-17" d="m179.5,726c-2.23-2.52-4.43-5.07-6.6-7.64"/><path class="cls-17" d="m213.09,759.6c-5.33-4.72-10.53-9.59-15.59-14.59"/><path class="cls-17" d="m853.88,367.23c8.1,31.43,12.41,64.39,12.41,98.35,0,9.94-.37,19.78-1.09,29.54"/><path class="cls-17" d="m808.62,260.59c15.74,25.67,28.6,53.28,38.16,82.4"/></g><path class="cls-13" d="m157.47,495.19c-.9-9.75-1.36-19.63-1.36-29.62,0-48.2,10.74-93.89,29.97-134.81"/><path class="cls-13" d="m173.09,568.26c-4.11-12.04-7.52-24.4-10.18-37.04"/><path class="cls-13" d="m189.42,607.28c-3.12-6.25-6.04-12.61-8.76-19.08"/><path class="cls-13" d="m226.23,664.58c-10.54-13.08-20.07-27.02-28.45-41.69"/><path class="cls-13" d="m305.36,734.83c-12.18-7.62-23.8-16.05-34.8-25.2"/><path class="cls-13" d="m420.57,778.59c-14.77-2.48-29.19-5.98-43.19-10.42"/><path class="cls-13" d="m617.73,748.41c-27.76,14.18-57.89,24.4-89.64,29.9"/><path class="cls-13" d="m689.89,697.82c-17.06,15.9-35.86,29.94-56.1,41.8"/><path class="cls-7" d="m774.72,565.98c-12.83,38.51-32.84,73.74-58.44,104.1"/><path class="cls-13" d="m789.11,431.36c1.2,11.24,1.82,22.65,1.82,34.21,0,25.66-3.04,50.61-8.79,74.5"/><path class="cls-7" d="m778.37,376.88c1.7,5.87,3.24,11.8,4.61,17.8"/><path class="cls-7" d="m758.18,325c5.65,11.42,10.63,23.23,14.9,35.38"/><path class="cls-13" d="m700.11,243.3c15.89,16.2,30.06,34.09,42.21,53.39"/><path class="cls-13" d="m658.01,207.26c9.88,7.07,19.34,14.69,28.33,22.82"/><path class="cls-13" d="m583.16,167.61c15.4,5.67,30.25,12.5,44.42,20.39"/><path class="cls-13" d="m295.68,202.63c19.2-13.01,39.9-23.98,61.79-32.58"/><path class="cls-7" d="m208.47,290.87c18.06-27.34,40.23-51.72,65.63-72.26"/><g class="cls-18"><path class="cls-5" d="m162.9,152.44c2.7-2.67,5.43-5.31,8.19-7.92"/><path class="cls-5" d="m117.63,204.99c13.71-18.69,28.85-36.26,45.27-52.54"/><path class="cls-5" d="m78.08,269.99c9.96-20.1,21.41-39.33,34.19-57.54"/><path class="cls-5" d="m39.37,387.34c6.49-36.24,17.4-70.95,32.16-103.54"/><path class="cls-5" d="m47.14,578.84c-2.13-8.04-4.04-16.16-5.72-24.37"/><path class="cls-5" d="m60.59,620.93c-1.8-4.77-3.51-9.58-5.14-14.43"/><path class="cls-5" d="m833.25,720.85c-7.74,10.88-15.95,21.4-24.62,31.52"/><path class="cls-5" d="m861.49,675.57c-6.71,12.37-13.99,24.39-21.82,36.01"/><path class="cls-5" d="m880.34,636.27c-2.21,5.27-4.53,10.49-6.94,15.65"/><path class="cls-5" d="m790.94,159.34c12.04,12.48,23.35,25.66,33.86,39.48"/><path class="cls-5" d="m745.5,118.33c10.55,8.27,20.7,17.01,30.45,26.19"/></g></g></svg>