<?xml version="1.0" encoding="UTF-8"?><svg id="_レイヤー_2" xmlns="http://www.w3.org/2000/svg" viewBox="0 0 256 208.05"><defs><style>.cls-1{fill:#fff;}</style></defs><g id="_レイヤー_1-2"><path class="cls-1" d="m256,24.63c-9.42,4.18-19.54,7-30.17,8.27,10.84-6.5,19.17-16.79,23.09-29.06-10.15,6.02-21.39,10.39-33.35,12.75C205.99,6.38,192.35,0,177.24,0c-29.01,0-52.52,23.52-52.52,52.52,0,4.12.47,8.13,1.36,11.97-43.65-2.19-82.35-23.1-108.26-54.88-4.52,7.76-7.11,16.78-7.11,26.4,0,18.22,9.27,34.3,23.37,43.72-8.61-.27-16.71-2.64-23.79-6.57,0,.22,0,.44,0,.66,0,25.45,18.1,46.68,42.13,51.5-4.41,1.2-9.05,1.84-13.84,1.84-3.38,0-6.67-.33-9.88-.94,6.68,20.87,26.08,36.05,49.06,36.48-17.97,14.09-40.62,22.48-65.23,22.48-4.24,0-8.42-.25-12.53-.73,23.24,14.9,50.85,23.6,80.51,23.6,96.61,0,149.43-80.03,149.43-149.43,0-2.28-.05-4.54-.15-6.79,10.26-7.4,19.17-16.66,26.21-27.19"/></g></svg>