<svg xmlns="http://www.w3.org/2000/svg" width="303.206" height="218.696" viewBox="0 0 303.206 218.696"><defs><style>.a{fill:#211715;}</style></defs><path class="a" d="M22.166,14.842a6.118,6.118,0,0,0-6.239,6.2c0,3.87,2.413,6.316,6.239,6.316,3.915,0,6.239-2.446,6.239-6.316A6.112,6.112,0,0,0,22.166,14.842Z"/><path class="a" d="M40.581,14.842a6.117,6.117,0,0,0-6.238,6.2c0,3.87,2.413,6.316,6.239,6.316,3.914,0,6.239-2.446,6.239-6.316A6.113,6.113,0,0,0,40.581,14.842Z"/><path class="a" d="M59.008,14.842a6.118,6.118,0,0,0-6.239,6.2c0,3.87,2.413,6.316,6.239,6.316,3.915,0,6.239-2.446,6.239-6.316A6.112,6.112,0,0,0,59.008,14.842Z"/><path class="a" d="M165.826,97.439l3.147-.008a2.06,2.06,0,0,0,1.414-.586,2,2,0,0,0,0-2.828,2.074,2.074,0,0,0-1.414-.586l-3.147.008a2.065,2.065,0,0,0-1.414.585,2,2,0,0,0,0,2.829,2.076,2.076,0,0,0,1.414.586Z"/><path class="a" d="M134.152,97.488q12.353,0,24.7-.042c2.573,0,2.578-4,0-4q-12.352.024-24.7.042c-2.574,0-2.578,4,0,4Z"/><path class="a" d="M230.9,131.8a14.727,14.727,0,0,1-10.166,14.234c-2.586.8-5.241.661-7.912.663q-3.673,0-7.347.012-18.26.04-36.518.131-19.881.087-39.761.187-16.061.077-32.12.143c-3.26.012-6.521.031-9.782.024A14.951,14.951,0,0,1,72.93,136.943a15.183,15.183,0,0,1,5.992-17.231c4.7-3.031,10.26-2.389,15.589-2.39q17.441,0,34.881-.018l39.887-.028,33.577-.024,11.094,0a23.577,23.577,0,0,1,6.1.476A14.481,14.481,0,0,1,230.9,131.8c.026,2.573,4.026,2.579,4,0a18.782,18.782,0,0,0-11.727-17.246c-4.1-1.67-8.61-1.308-12.948-1.306q-15.494.006-30.985.02l-40.8.029q-19.127.013-38.255.022l-7.748,0a65.234,65.234,0,0,0-7.545.128,18.943,18.943,0,0,0-15.871,13.222,18.877,18.877,0,0,0,15.911,24.4,45.9,45.9,0,0,0,5.452.123q14.474-.032,28.945-.116,20.217-.1,40.435-.192,19.755-.092,39.511-.157,7.74-.021,15.478-.029a21.772,21.772,0,0,0,9.824-1.915,18.522,18.522,0,0,0,7.792-7.27A19.146,19.146,0,0,0,234.9,131.8C234.9,129.228,230.9,129.223,230.9,131.8Z"/><path class="a" d="M212.055,124.839a6.237,6.237,0,0,0-5.986,4.465,6.422,6.422,0,0,0,2.045,6.741,6.852,6.852,0,0,0,7.182.5,6.138,6.138,0,0,0,2.949-6.063,6.213,6.213,0,0,0-1.922-3.993,6.422,6.422,0,0,0-4.268-1.645,2,2,0,0,0,0,4c.123,0,.245.011.368.014.435.011-.48-.1-.061-.01a5.346,5.346,0,0,1,.557.142c.232.076.283.226-.061-.039a1.453,1.453,0,0,0,.2.1q.145.075.285.162.091.058.18.12.251.183-.148-.117a4.38,4.38,0,0,0,.388.368c.047.052.252.331.05.042s0,.005.033.055c.109.164.183.35.291.512.142.212-.174-.5-.054-.131.046.138.094.273.131.414.019.071.035.142.05.214.051.246-.058.356,0-.093-.021.179.025.385.022.569,0,.116-.008.231-.016.347-.016.211-.143.418.02-.088-.064.2-.079.419-.139.622-.03.1-.065.193-.1.29-.054.163-.16.176.087-.2-.1.161-.175.346-.283.508-.034.052-.078.1-.109.156.277-.473.2-.253.071-.113-.053.058-.109.113-.166.167-.147.139-.414.239.078-.04-.139.079-.264.181-.405.258-.085.046-.182.081-.264.131.46-.281.291-.118.1-.055a4.448,4.448,0,0,1-.506.137c-.158.033-.514.04.1,0-.114.007-.227.024-.341.03a5.872,5.872,0,0,1-.7,0c-.075,0-.15-.012-.225-.018-.414-.028.5.1.1.009-.171-.04-.341-.074-.508-.126-.1-.03-.191-.077-.287-.1.544.135.256.113.074.016-.157-.083-.3-.2-.45-.281.446.247.278.234.146.1-.056-.056-.116-.107-.172-.163s-.128-.14-.192-.21c-.2-.22.132.164.138.178-.079-.2-.244-.394-.343-.587-.08-.156,0-.219.084.2-.02-.1-.071-.2-.1-.29-.051-.17-.085-.342-.124-.515-.092-.4.037.512.009.094-.007-.114-.018-.228-.023-.343-.009-.223.043-.466.018-.684.05.433-.068.37-.014.149.03-.124.053-.248.088-.371.03-.1.069-.206.1-.309.12-.37-.222.42-.031.083.114-.2.243-.394.359-.594.127-.22-.345.385-.081.113.1-.1.193-.21.3-.307a1.316,1.316,0,0,0,.161-.142c-.266.2-.316.238-.149.116.059-.041.119-.082.181-.12.077-.049.156-.094.236-.137.048-.027.1-.052.146-.076q.285-.132-.172.068c.214-.028.438-.15.655-.2l.114-.023c.214-.036.155-.029-.179.02a2.384,2.384,0,0,0,.489-.025,2,2,0,0,0,0-4Z"/><path class="a" d="M214.033,135.416c1.044,1.055,2.1,2.1,3.176,3.12a2.086,2.086,0,0,0,1.415.586,2.036,2.036,0,0,0,1.414-.586,2.014,2.014,0,0,0,.586-1.414,2.041,2.041,0,0,0-.586-1.414c-1.08-1.018-2.133-2.065-3.176-3.12a2.057,2.057,0,0,0-1.414-.586,2.037,2.037,0,0,0-1.415.586,2.009,2.009,0,0,0-.585,1.414,2.091,2.091,0,0,0,.585,1.414Z"/><path class="a" d="M286.619,16.2c3.089,0,3.094-4.8,0-4.8s-3.094,4.8,0,4.8Z"/><path class="a" d="M286.619,23.177c3.089,0,3.094-4.8,0-4.8s-3.094,4.8,0,4.8Z"/><path class="a" d="M286.619,30.159c3.089,0,3.094-4.8,0-4.8s-3.094,4.8,0,4.8Z"/><path class="a" d="M299.117,13.991l0,42.91,0,56.572,0,56.4q0,11.747,0,23.491,0,5,0,10.009c0,4.415-2.148,8.553-6.492,10.133-2.873,1.044-6.286.627-9.308.633l-8.786.015-20.4.038-49.846.1-56.17.112-55.808.112-48.76.1-19.585.038-8.31.015a13.841,13.841,0,0,1-5.39-.715,10.075,10.075,0,0,1-4.868-4.219c-1.87-3.182-1.374-7.042-1.376-10.588q0-5.268,0-10.536,0-12.336,0-24.67.01-28.583.033-57.165.019-27.828.033-55.654,0-11.515,0-23.03,0-4.734,0-9.469c0-3.693-.266-7.368,2.249-10.416a10.145,10.145,0,0,1,5.589-3.427A20.762,20.762,0,0,1,16.5,4.533l8-.016L43.4,4.481l47.327-.1,53.913-.109,54.791-.111L247.91,4.07Q266.056,4.035,284.2,4c2.528,0,5.307-.309,7.75.4a10.093,10.093,0,0,1,7.164,9.588c.043,2.572,4.043,2.58,4,0A14.215,14.215,0,0,0,296.175,1.9C292.934.006,289.463,0,285.848,0q-8,.012-15.989.028-21.751.039-43.5.083L173.148.218,117.217.332,65.11.437,23.429.52,15.463.535C10.9.543,6.565,1.748,3.5,5.367A14.013,14.013,0,0,0,.324,11.945,30.476,30.476,0,0,0,.08,17.288q0,4.683,0,9.367,0,25.116-.017,50.233Q.049,106.432.028,135.977q-.015,26.547-.019,53.1,0,5.308,0,10.615c0,4.033-.27,8.046,1.731,11.72a14.148,14.148,0,0,0,11.881,7.248c2.78.094,5.58,0,8.361-.008q21.413-.04,42.825-.084l53.843-.107,57.615-.116q27.381-.056,54.761-.108,22.268-.043,44.535-.085l8.778-.015c3.59-.006,7.192.237,10.555-1.268a14.092,14.092,0,0,0,8.146-11.483c.326-3.364.064-6.869.064-10.249l0-51.21q0-29.688,0-59.377,0-26.114,0-52.226,0-9.164,0-18.328C303.117,11.417,299.117,11.413,299.117,13.991Z"/><path class="a" d="M2.3,41.516q5.494,0,10.988-.016,11.226-.019,22.45-.043l31.037-.064,37.133-.078,40.382-.085,40.733-.086,38.671-.08L257.4,41q13-.026,26-.049,7.758-.014,15.518-.023h1.912c2.574,0,2.578-4,0-4q-6.318,0-12.635.016-11.871.02-23.741.043l-31.968.064-37.711.078-40.6.085-40.6.086-38.179.08-32.859.068-24.8.049q-6.981.014-13.963.023H2.3c-2.574,0-2.578,4,0,4Z"/></svg>